<?xml version="1.0" standalone="no"?><!DOCTYPE svg PUBLIC "-//W3C//DTD SVG 1.1//EN" "http://www.w3.org/Graphics/SVG/1.1/DTD/svg11.dtd"><svg t="1668397997027" class="icon" viewBox="0 0 1024 1024" version="1.1" xmlns="http://www.w3.org/2000/svg" p-id="2332" xmlns:xlink="http://www.w3.org/1999/xlink" width="200" height="200"><path d="M347.362 64.99L247.992 7.626 148.628 65l0.006 114.738L248 237.104l99.366-57.374-0.004-114.74zM248 219.042L164.276 170.706l-0.006-96.676 83.722-48.34 83.726 48.336 0.002 96.674L248 219.042z" fill="#4A555F" p-id="2333"></path><path d="M313.47 84.56l-65.474-37.796-65.474 37.804 0.002 75.602 65.474 37.798 65.474-37.806z" fill="#F58E6F" p-id="2334"></path><path d="M281.886 361.4L140.94 280.024 0 361.394l0.006 162.754 140.946 81.376 140.94-81.372-0.006-162.752zM140.952 587.46L15.648 515.112l-0.004-144.686 125.296-72.34 125.302 72.348 0.006 144.684-125.296 72.342z" fill="#4A555F" p-id="2335"></path><path d="M247.992 380.97L140.94 319.16l-107.046 61.804 0.004 123.612 107.052 61.81 107.048-61.804z" fill="#71CCE0" p-id="2336"></path><path d="M607.384 762.232l-54.664-31.558-54.66 31.562 0.002 63.116 54.66 31.558 54.662-31.558v-63.12z m-54.662 76.618l-39.016-22.53-0.002-45.054 39.016-22.528 39.02 22.528 0.002 45.054-39.02 22.53z" fill="#4A555F" p-id="2337"></path><path d="M552.722 769.812l-20.766 11.992v23.982l20.768 11.988 20.766-11.992v-23.978z" fill="#F58E6F" p-id="2338"></path><path d="M209.012 731.25l-94.14-54.354-94.14 54.35 0.002 108.71 94.142 54.352 94.14-54.35-0.004-108.708z m-94.136 144.994l-78.5-45.324-0.002-90.642 78.498-45.32 78.498 45.326 0.004 90.64-78.498 45.32z" fill="#4A555F" p-id="2339"></path><path d="M175.118 750.818l-60.248-34.784-60.244 34.782 0.002 69.57 60.248 34.786 60.246-34.784z" fill="#F58E6F" p-id="2340"></path><path d="M816.5 98.234L675.552 16.856l-140.94 81.372 0.004 162.75 140.946 81.376 140.94-81.372-0.002-162.748z m-140.936 226.058l-125.302-72.348-0.004-144.684 125.296-72.344 125.302 72.348 0.004 144.684-125.296 72.344z" fill="#4A555F" p-id="2341"></path><path d="M782.606 117.802l-107.052-61.81-107.048 61.806 0.006 123.61 107.052 61.81 107.044-61.804z" fill="#71CCE0" p-id="2342"></path><path d="M1023.998 469.884l-100.292-57.904-100.288 57.9 0.002 115.808 100.292 57.904L1024 585.69l-0.002-115.806z m-100.284 155.644l-84.648-48.876-0.002-97.74 84.644-48.87 84.648 48.876 0.002 97.74-84.644 48.87z" fill="#4A555F" p-id="2343"></path><path d="M990.104 489.452l-66.398-38.338-66.394 38.332 0.004 76.67 66.394 38.336 66.396-38.332z" fill="#F58E6F" p-id="2344"></path><path d="M527.362 262.442l-100.29-57.904-100.288 57.896 0.002 115.808 100.29 57.904 100.29-57.898-0.004-115.806z m-100.286 155.642l-84.646-48.876-0.002-97.74 84.644-48.868 84.646 48.876 0.004 97.738-84.646 48.87z" fill="#4A555F" p-id="2345"></path><path d="M493.468 282.012l-66.396-38.338-66.396 38.33 0.006 76.67 66.396 38.336 66.392-38.33z" fill="#71CCE0" p-id="2346"></path><path d="M817.272 842.666l-100.292-57.904-100.286 57.898 0.002 115.808 100.292 57.904 100.286-57.898-0.002-115.808z m-100.284 155.646l-84.648-48.876-0.002-97.74 84.644-48.87 84.648 48.876 0.002 97.74-84.644 48.87z" fill="#4A555F" p-id="2347"></path><path d="M783.376 862.236l-66.394-38.338-66.396 38.332 0.006 76.668 66.394 38.338 66.396-38.332z" fill="#71CCE0" p-id="2348"></path><path d="M724.8 457.18l-140.944-81.376-140.94 81.37 0.004 162.754 140.944 81.376 140.94-81.372-0.004-162.752z m-140.936 226.06l-125.3-72.348-0.004-144.686 125.296-72.34 125.3 72.348 0.006 144.684-125.298 72.342z" fill="#4A555F" p-id="2349"></path><path d="M690.908 476.75l-107.052-61.81-107.046 61.802 0.004 123.616 107.052 61.808 107.044-61.804z" fill="#71CCE0" p-id="2350"></path><path d="M483.298 776.468l-108.526-62.658-108.522 62.656 0.002 125.318 108.526 62.658 108.524-62.656-0.004-125.318z m-108.522 169.91l-92.884-53.628-0.002-107.25 92.88-53.626 92.882 53.63 0.002 107.25-92.878 53.624z" fill="#4A555F" p-id="2351"></path><path d="M449.402 796.038l-74.632-43.09-74.63 43.084 0.006 86.182 74.632 43.09 74.628-43.088z" fill="#71CCE0" p-id="2352"></path><path d="M991.656 746.374l-67.948-39.226-67.946 39.224v78.456l67.948 39.228 67.948-39.226-0.002-78.456z m-67.946 99.62l-52.304-30.2v-60.39l52.302-30.194 52.306 30.196 0.002 60.388-52.306 30.2z" fill="#4A555F" p-id="2353"></path><path d="M957.76 765.946l-34.054-19.66-34.052 19.658 0.004 39.316 34.054 19.658 34.052-19.654z" fill="#F58E6F" p-id="2354"></path><path d="M915.886 195.26v136.34l-202.972 123.414 8.128 13.368 210.488-127.986V195.26z" fill="#4A555F" p-id="2355"></path><path d="M923.708 139.516c-16.258 0-29.488 13.23-29.488 29.49 0 16.26 13.23 29.488 29.488 29.488 16.26 0 29.49-13.23 29.49-29.488 0-16.26-13.23-29.49-29.49-29.49z m0 43.334a13.86 13.86 0 0 1-13.846-13.846 13.86 13.86 0 0 1 13.846-13.846 13.86 13.86 0 0 1 13.846 13.846 13.86 13.86 0 0 1-13.846 13.846zM54.624 48.172c-16.26 0-29.49 13.23-29.49 29.49 0 16.26 13.23 29.49 29.49 29.49 16.26 0 29.488-13.23 29.488-29.49 0.002-16.262-13.228-29.49-29.488-29.49z m0 43.334a13.86 13.86 0 0 1-13.846-13.846 13.86 13.86 0 0 1 13.846-13.846 13.86 13.86 0 0 1 13.846 13.846 13.86 13.86 0 0 1-13.846 13.846zM274.07 662.782c-16.26 0-29.49 13.23-29.49 29.49 0 16.26 13.23 29.488 29.49 29.488 16.258 0 29.488-13.23 29.488-29.488 0-16.26-13.228-29.49-29.488-29.49z m0 43.336a13.86 13.86 0 0 1-13.846-13.846 13.86 13.86 0 0 1 13.846-13.846 13.86 13.86 0 0 1 13.846 13.846 13.86 13.86 0 0 1-13.846 13.846zM783.382 695.128c-16.26 0-29.49 13.23-29.49 29.49 0 16.26 13.23 29.49 29.49 29.49s29.49-13.23 29.49-29.49c-0.002-16.26-13.23-29.49-29.49-29.49z m0 43.336a13.86 13.86 0 0 1-13.846-13.846 13.86 13.86 0 0 1 13.846-13.846 13.86 13.86 0 0 1 13.846 13.846 13.86 13.86 0 0 1-13.846 13.846z" fill="#4A555F" p-id="2356"></path><path d="M446.624 488.548l-180.376 111.546v75.486h15.644v-66.768l172.96-106.958zM62.446 175V96.948h-15.644v87.262l284.014 157.448 7.582-13.682zM646.812 658.926l7.58-13.684 115.678 64.1-7.584 13.684z" fill="#4A555F" p-id="2357"></path></svg>